<svg id="Capa_1" data-name="Capa 1" xmlns="http://www.w3.org/2000/svg" viewBox="0 0 400.36 509.51">
  <defs>
    <style>
      .cls-1 {
        fill: #5ac0d1;
      }

      .cls-2 {
        fill: #111183;
      }
    </style>
  </defs>
  <title>Logo OCELCO final</title>
  <g>
    <path class="cls-1" d="M231.146,530.547a4.413,4.413,0,0,0-2.045-1.409,7.346,7.346,0,0,0-2.441-.456,6.411,6.411,0,0,0-1.39.159,5.363,5.363,0,0,0-1.35.5,2.944,2.944,0,0,0-1.032.893,2.262,2.262,0,0,0-.4,1.35,2.236,2.236,0,0,0,.953,1.945,9,9,0,0,0,2.4,1.152q1.449.476,3.117.952a12.862,12.862,0,0,1,3.116,1.35,7.4,7.4,0,0,1,2.4,2.342,7.145,7.145,0,0,1,.952,3.93,9.042,9.042,0,0,1-.873,4.089,8.3,8.3,0,0,1-2.362,2.9,10.035,10.035,0,0,1-3.454,1.707,15.841,15.841,0,0,1-9.23-.277,12.721,12.721,0,0,1-4.367-2.7l4.406-4.843a6.42,6.42,0,0,0,2.4,1.965,6.852,6.852,0,0,0,3,.695,6.758,6.758,0,0,0,1.528-.179,4.974,4.974,0,0,0,1.39-.536,3,3,0,0,0,.992-.913,2.279,2.279,0,0,0,.377-1.311,2.378,2.378,0,0,0-.973-2,9,9,0,0,0-2.441-1.25q-1.469-.516-3.176-1.032a14.251,14.251,0,0,1-3.176-1.389,7.642,7.642,0,0,1-2.441-2.3,6.578,6.578,0,0,1-.973-3.771,8.446,8.446,0,0,1,.894-3.97,8.619,8.619,0,0,1,2.382-2.858,10.361,10.361,0,0,1,3.434-1.727,14.076,14.076,0,0,1,4.009-.576,15.757,15.757,0,0,1,4.605.675,10.627,10.627,0,0,1,4.009,2.263Z" transform="translate(-201.821 -42.991)"/>
    <path class="cls-1" d="M238.569,542.14a10.105,10.105,0,0,1,.834-4.168,9.6,9.6,0,0,1,2.283-3.2,10.091,10.091,0,0,1,3.414-2.045,12.644,12.644,0,0,1,8.376,0,10.1,10.1,0,0,1,3.414,2.045,9.6,9.6,0,0,1,2.283,3.2,10.835,10.835,0,0,1,0,8.336,9.591,9.591,0,0,1-2.283,3.2,10.073,10.073,0,0,1-3.414,2.045,12.629,12.629,0,0,1-8.376,0,10.063,10.063,0,0,1-3.414-2.045,9.585,9.585,0,0,1-2.283-3.2A10.1,10.1,0,0,1,238.569,542.14Zm5.955,0a4.992,4.992,0,0,0,1.25,3.533,5.247,5.247,0,0,0,7.027,0,5.617,5.617,0,0,0,0-7.067,5.25,5.25,0,0,0-7.027,0A5,5,0,0,0,244.524,542.14Z" transform="translate(-201.821 -42.991)"/>
    <path class="cls-1" d="M263.579,521.774h5.955v30.013h-5.955Z" transform="translate(-201.821 -42.991)"/>
    <path class="cls-1" d="M292.4,551.787h-5.716v-2.621H286.6a6.573,6.573,0,0,1-.814,1.112,5.348,5.348,0,0,1-1.211.993,7.011,7.011,0,0,1-1.627.714,6.8,6.8,0,0,1-1.985.278,8.343,8.343,0,0,1-3.672-.695,5.248,5.248,0,0,1-2.183-1.926,7.529,7.529,0,0,1-1.032-2.9,23.554,23.554,0,0,1-.258-3.612V532.493h5.955v9.448q0,.834.06,1.727a5.448,5.448,0,0,0,.357,1.648,2.562,2.562,0,0,0,2.68,1.707,3.671,3.671,0,0,0,1.866-.417,2.839,2.839,0,0,0,1.092-1.112,4.538,4.538,0,0,0,.5-1.568,13.49,13.49,0,0,0,.119-1.826v-9.607H292.4Z" transform="translate(-201.821 -42.991)"/>
    <path class="cls-1" d="M309.668,538.726a3.346,3.346,0,0,0-1.23-1.052,3.624,3.624,0,0,0-1.707-.416,4.556,4.556,0,0,0-3.514,1.349,5.617,5.617,0,0,0,0,7.067,4.55,4.55,0,0,0,3.514,1.35,3.2,3.2,0,0,0,1.707-.437,5.19,5.19,0,0,0,1.23-1.031l3.93,4.128a7.59,7.59,0,0,1-3.275,2,12.3,12.3,0,0,1-3.593.576,12.156,12.156,0,0,1-4.188-.715,10.063,10.063,0,0,1-3.414-2.045,9.585,9.585,0,0,1-2.283-3.2,10.835,10.835,0,0,1,0-8.336,9.6,9.6,0,0,1,2.283-3.2,10.091,10.091,0,0,1,3.414-2.045,12.176,12.176,0,0,1,4.188-.714,12.332,12.332,0,0,1,3.593.575A7.6,7.6,0,0,1,313.6,534.6Z" transform="translate(-201.821 -42.991)"/>
    <path class="cls-1" d="M315.345,526.419a3.457,3.457,0,1,1,1.013,2.442A3.328,3.328,0,0,1,315.345,526.419Zm.476,6.074h5.955v19.293h-5.955Z" transform="translate(-201.821 -42.991)"/>
    <path class="cls-1" d="M325.348,542.14a10.105,10.105,0,0,1,.834-4.168,9.6,9.6,0,0,1,2.283-3.2,10.091,10.091,0,0,1,3.414-2.045,12.644,12.644,0,0,1,8.376,0,10.1,10.1,0,0,1,3.414,2.045,9.6,9.6,0,0,1,2.283,3.2,10.835,10.835,0,0,1,0,8.336,9.591,9.591,0,0,1-2.283,3.2,10.073,10.073,0,0,1-3.414,2.045,12.629,12.629,0,0,1-8.376,0,10.063,10.063,0,0,1-3.414-2.045,9.585,9.585,0,0,1-2.283-3.2A10.1,10.1,0,0,1,325.348,542.14Zm5.955,0a4.992,4.992,0,0,0,1.25,3.533,5.247,5.247,0,0,0,7.027,0,5.617,5.617,0,0,0,0-7.067,5.25,5.25,0,0,0-7.027,0A5,5,0,0,0,331.3,542.14Zm4.8-18.46h8.1l-6.868,5.717H332.1Z" transform="translate(-201.821 -42.991)"/>
    <path class="cls-1" d="M350.278,532.493H356v2.62h.079a4.832,4.832,0,0,1,.794-1.112,5.791,5.791,0,0,1,1.23-.992,7.082,7.082,0,0,1,1.628-.715,6.794,6.794,0,0,1,1.985-.277,8.2,8.2,0,0,1,3.652.695,5.283,5.283,0,0,1,2.163,1.925,7.8,7.8,0,0,1,1.052,2.9,22.091,22.091,0,0,1,.277,3.613v10.639H362.9v-9.448q0-.834-.06-1.727a5.443,5.443,0,0,0-.357-1.648,2.561,2.561,0,0,0-2.679-1.707,3.681,3.681,0,0,0-1.866.416,2.851,2.851,0,0,0-1.092,1.112,4.54,4.54,0,0,0-.5,1.568,13.522,13.522,0,0,0-.119,1.826v9.607h-5.955Z" transform="translate(-201.821 -42.991)"/>
    <path class="cls-1" d="M403.078,548.452a9.508,9.508,0,0,1-3.613,2.819,10.838,10.838,0,0,1-4.525.992,12.162,12.162,0,0,1-4.189-.715,10.069,10.069,0,0,1-3.414-2.045,9.579,9.579,0,0,1-2.283-3.2,10.84,10.84,0,0,1,0-8.336,9.591,9.591,0,0,1,2.283-3.2,10.1,10.1,0,0,1,3.414-2.045,12.182,12.182,0,0,1,4.189-.714,9.547,9.547,0,0,1,3.751.714,7.823,7.823,0,0,1,2.858,2.045,9.311,9.311,0,0,1,1.807,3.2,12.885,12.885,0,0,1,.635,4.168v1.866H390.175a4.713,4.713,0,0,0,1.548,2.72,4.38,4.38,0,0,0,2.937,1.012,4.472,4.472,0,0,0,2.482-.655,6.658,6.658,0,0,0,1.766-1.687Zm-5.043-8.5a3.451,3.451,0,0,0-.992-2.58,3.53,3.53,0,0,0-2.66-1.072,4.464,4.464,0,0,0-1.747.318,4.381,4.381,0,0,0-1.29.813,3.574,3.574,0,0,0-.834,1.152,3.769,3.769,0,0,0-.337,1.369Z" transform="translate(-201.821 -42.991)"/>
    <path class="cls-1" d="M407.6,532.493h5.717v2.62h.079a4.818,4.818,0,0,1,.794-1.112,5.791,5.791,0,0,1,1.23-.992,7.078,7.078,0,0,1,1.627-.715,6.8,6.8,0,0,1,1.985-.277,8.2,8.2,0,0,1,3.652.695,5.285,5.285,0,0,1,2.164,1.925,7.792,7.792,0,0,1,1.052,2.9,22.039,22.039,0,0,1,.278,3.613v10.639h-5.955v-9.448q0-.834-.059-1.727a5.443,5.443,0,0,0-.358-1.648,2.561,2.561,0,0,0-2.68-1.707,3.679,3.679,0,0,0-1.866.416,2.848,2.848,0,0,0-1.092,1.112,4.531,4.531,0,0,0-.5,1.568,13.52,13.52,0,0,0-.12,1.826v9.607H407.6Z" transform="translate(-201.821 -42.991)"/>
    <path class="cls-1" d="M442.7,521.774h5.955v12.783h.079a5.562,5.562,0,0,1,2.64-1.965,10.247,10.247,0,0,1,3.474-.575,7.835,7.835,0,0,1,3.692.853,8.529,8.529,0,0,1,2.758,2.283,10.641,10.641,0,0,1,1.747,3.275,12.156,12.156,0,0,1,.615,3.87,11.5,11.5,0,0,1-.675,4.01,9.205,9.205,0,0,1-1.926,3.156,8.671,8.671,0,0,1-3,2.064,9.949,9.949,0,0,1-3.891.735,6.655,6.655,0,0,1-1.945-.278,8.341,8.341,0,0,1-1.687-.714,7.055,7.055,0,0,1-1.35-.973,6.529,6.529,0,0,1-.933-1.052h-.079v2.541H442.7Zm5.478,20.366a4.992,4.992,0,0,0,1.25,3.533,5.246,5.246,0,0,0,7.026,0,5.617,5.617,0,0,0,0-7.067,5.249,5.249,0,0,0-7.026,0A5,5,0,0,0,448.174,542.14Z" transform="translate(-201.821 -42.991)"/>
    <path class="cls-1" d="M466.434,542.14a10.105,10.105,0,0,1,.834-4.168,9.589,9.589,0,0,1,2.282-3.2,10.1,10.1,0,0,1,3.415-2.045,12.644,12.644,0,0,1,8.376,0,10.1,10.1,0,0,1,3.414,2.045,9.6,9.6,0,0,1,2.283,3.2,10.84,10.84,0,0,1,0,8.336,9.591,9.591,0,0,1-2.283,3.2,10.069,10.069,0,0,1-3.414,2.045,12.629,12.629,0,0,1-8.376,0,10.073,10.073,0,0,1-3.415-2.045,9.577,9.577,0,0,1-2.282-3.2A10.1,10.1,0,0,1,466.434,542.14Zm5.955,0a4.992,4.992,0,0,0,1.25,3.533,5.246,5.246,0,0,0,7.026,0,5.617,5.617,0,0,0,0-7.067,5.249,5.249,0,0,0-7.026,0A5,5,0,0,0,472.389,542.14Z" transform="translate(-201.821 -42.991)"/>
    <path class="cls-1" d="M491.365,532.493h5.717v2.62h.079a4.818,4.818,0,0,1,.794-1.112,5.791,5.791,0,0,1,1.23-.992,7.078,7.078,0,0,1,1.627-.715,6.8,6.8,0,0,1,1.985-.277,7.534,7.534,0,0,1,3.593.833,5.282,5.282,0,0,1,2.362,2.62,6.446,6.446,0,0,1,2.5-2.66,7.522,7.522,0,0,1,3.613-.793,7.377,7.377,0,0,1,3.275.654,5.361,5.361,0,0,1,2.1,1.786,7.537,7.537,0,0,1,1.112,2.66,15.221,15.221,0,0,1,.338,3.276v11.393H515.74V540.552a4.49,4.49,0,0,0-.576-2.323,2.176,2.176,0,0,0-2.045-.972,3.945,3.945,0,0,0-1.727.337,2.848,2.848,0,0,0-1.112.933,3.9,3.9,0,0,0-.6,1.39,7.606,7.606,0,0,0-.179,1.667v10.2h-5.955v-10.2c0-.343-.013-.767-.039-1.27a5.1,5.1,0,0,0-.278-1.429,2.732,2.732,0,0,0-.774-1.151,2.289,2.289,0,0,0-1.568-.476,3.679,3.679,0,0,0-1.866.416,2.848,2.848,0,0,0-1.092,1.112,4.53,4.53,0,0,0-.5,1.568,13.52,13.52,0,0,0-.12,1.826v9.607h-5.955Z" transform="translate(-201.821 -42.991)"/>
    <path class="cls-1" d="M526.458,521.774h5.955v12.783h.079a5.562,5.562,0,0,1,2.64-1.965,10.247,10.247,0,0,1,3.474-.575,7.835,7.835,0,0,1,3.692.853,8.529,8.529,0,0,1,2.758,2.283,10.641,10.641,0,0,1,1.747,3.275,12.156,12.156,0,0,1,.615,3.87,11.494,11.494,0,0,1-.675,4.01,9.205,9.205,0,0,1-1.926,3.156,8.671,8.671,0,0,1-3,2.064,9.949,9.949,0,0,1-3.891.735,6.655,6.655,0,0,1-1.945-.278,8.341,8.341,0,0,1-1.687-.714,7.055,7.055,0,0,1-1.35-.973,6.529,6.529,0,0,1-.933-1.052h-.079v2.541h-5.478Zm5.478,20.366a4.992,4.992,0,0,0,1.25,3.533,5.246,5.246,0,0,0,7.026,0,5.617,5.617,0,0,0,0-7.067,5.249,5.249,0,0,0-7.026,0A5,5,0,0,0,531.936,542.14Z" transform="translate(-201.821 -42.991)"/>
    <path class="cls-1" d="M563.02,549.365h-.079a5.6,5.6,0,0,1-2.64,2.223,9.086,9.086,0,0,1-3.473.675,8.956,8.956,0,0,1-2.6-.377,6.545,6.545,0,0,1-2.2-1.132,5.466,5.466,0,0,1-1.509-1.866,5.694,5.694,0,0,1-.556-2.58,5.918,5.918,0,0,1,.615-2.819,5.515,5.515,0,0,1,1.668-1.906,8.312,8.312,0,0,1,2.4-1.171,17.593,17.593,0,0,1,2.8-.615,26.988,26.988,0,0,1,2.9-.238q1.448-.039,2.679-.039A3.1,3.1,0,0,0,561.889,537a4.083,4.083,0,0,0-2.68-.933,5.831,5.831,0,0,0-2.68.615,7.344,7.344,0,0,0-2.163,1.687l-3.176-3.255a10.908,10.908,0,0,1,3.89-2.322,13.887,13.887,0,0,1,4.6-.774,12.048,12.048,0,0,1,4.307.654,6.262,6.262,0,0,1,2.7,1.926,7.413,7.413,0,0,1,1.409,3.116,20.468,20.468,0,0,1,.4,4.267v9.806H563.02Zm-1.469-6.034q-.675,0-1.687.059a8.576,8.576,0,0,0-1.945.338,4.342,4.342,0,0,0-1.588.833,1.921,1.921,0,0,0-.655,1.549,1.7,1.7,0,0,0,.914,1.587,3.811,3.811,0,0,0,1.9.517,5.98,5.98,0,0,0,1.688-.238,5.027,5.027,0,0,0,1.449-.675,3.253,3.253,0,0,0,1.012-1.111,3.205,3.205,0,0,0,.377-1.588v-1.271Z" transform="translate(-201.821 -42.991)"/>
    <path class="cls-1" d="M583.147,538.17a4.218,4.218,0,0,0-3.454-1.627,3.242,3.242,0,0,0-1.469.357,1.264,1.264,0,0,0-.715,1.23,1.106,1.106,0,0,0,.734,1.052,9.638,9.638,0,0,0,1.866.6l2.422.556a9.161,9.161,0,0,1,2.422.933,5.445,5.445,0,0,1,1.866,1.727,5.155,5.155,0,0,1,.734,2.918,5.408,5.408,0,0,1-.813,3.077,6.241,6.241,0,0,1-2.085,1.945,8.979,8.979,0,0,1-2.858,1.032,17.03,17.03,0,0,1-3.136.3,15.163,15.163,0,0,1-4.089-.576,7.627,7.627,0,0,1-3.493-2.045l3.613-4.009a6,6,0,0,0,1.846,1.568,4.979,4.979,0,0,0,2.362.536,5.531,5.531,0,0,0,1.866-.3,1.1,1.1,0,0,0,.833-1.093,1.21,1.21,0,0,0-.734-1.131,8.1,8.1,0,0,0-1.866-.635q-1.132-.258-2.422-.556a9.975,9.975,0,0,1-2.422-.893,5.059,5.059,0,0,1-1.867-1.688,5.151,5.151,0,0,1-.734-2.918,5.881,5.881,0,0,1,.695-2.937,6.1,6.1,0,0,1,1.826-2.025,7.886,7.886,0,0,1,2.6-1.171,11.927,11.927,0,0,1,2.977-.377,13.954,13.954,0,0,1,3.851.556,7.142,7.142,0,0,1,3.3,1.984Z" transform="translate(-201.821 -42.991)"/>
  </g>
  <g>
    <path class="cls-2" d="M295.593,495.689a20.579,20.579,0,0,1,1.467-7.927,17.389,17.389,0,0,1,4.092-6.049,18.035,18.035,0,0,1,6.228-3.834,23.838,23.838,0,0,1,15.752,0,18.045,18.045,0,0,1,6.229,3.834,17.394,17.394,0,0,1,4.092,6.049,22.152,22.152,0,0,1,0,15.854,17.383,17.383,0,0,1-4.092,6.048,18.021,18.021,0,0,1-6.229,3.835,23.838,23.838,0,0,1-15.752,0,18.011,18.011,0,0,1-6.228-3.835,17.377,17.377,0,0,1-4.092-6.048A20.576,20.576,0,0,1,295.593,495.689Zm8.339,0a13.35,13.35,0,0,0,.8,4.71,10.78,10.78,0,0,0,2.291,3.707,10.453,10.453,0,0,0,3.578,2.445,12.847,12.847,0,0,0,9.317,0,10.459,10.459,0,0,0,3.577-2.445,10.8,10.8,0,0,0,2.291-3.707,14.221,14.221,0,0,0,0-9.394,10.755,10.755,0,0,0-2.291-3.732,10.472,10.472,0,0,0-3.577-2.445,12.835,12.835,0,0,0-9.317,0,10.465,10.465,0,0,0-3.578,2.445A10.735,10.735,0,0,0,304.73,491,13.422,13.422,0,0,0,303.932,495.689Z" transform="translate(-201.821 -42.991)"/>
    <path class="cls-2" d="M364.21,486.938a7.882,7.882,0,0,0-2.908-2.214,9.678,9.678,0,0,0-3.989-.772,9.984,9.984,0,0,0-7.541,3.32A11.39,11.39,0,0,0,347.557,491a14.229,14.229,0,0,0,0,9.394,11.709,11.709,0,0,0,2.188,3.707,9.911,9.911,0,0,0,3.269,2.445,9.445,9.445,0,0,0,4.041.874,9.051,9.051,0,0,0,4.375-1.029,8.717,8.717,0,0,0,3.14-2.883l6.692,4.993a13.932,13.932,0,0,1-5.868,4.787,18.157,18.157,0,0,1-7.31,1.545,22.459,22.459,0,0,1-7.876-1.339,18.011,18.011,0,0,1-6.228-3.835,17.377,17.377,0,0,1-4.092-6.048,22.146,22.146,0,0,1,0-15.854,17.389,17.389,0,0,1,4.092-6.049,18.035,18.035,0,0,1,6.228-3.834,22.459,22.459,0,0,1,7.876-1.339,19.314,19.314,0,0,1,3.217.284,17.374,17.374,0,0,1,3.295.9,14.732,14.732,0,0,1,3.114,1.647,12.448,12.448,0,0,1,2.676,2.523Z" transform="translate(-201.821 -42.991)"/>
    <path class="cls-2" d="M375.945,477.467h24.76v7.412h-16.73v6.8h15.8v7.412h-15.8V506.5h17.657v7.412H375.945Z" transform="translate(-201.821 -42.991)"/>
    <path class="cls-2" d="M408.375,477.467h8.03V506.5h14.877v7.412H408.375Z" transform="translate(-201.821 -42.991)"/>
    <path class="cls-2" d="M459.542,486.938a7.885,7.885,0,0,0-2.908-2.214,9.676,9.676,0,0,0-3.989-.772,9.982,9.982,0,0,0-7.541,3.32A11.384,11.384,0,0,0,442.889,491a14.229,14.229,0,0,0,0,9.394,11.693,11.693,0,0,0,2.188,3.707,9.911,9.911,0,0,0,3.269,2.445,9.446,9.446,0,0,0,4.041.874,9.055,9.055,0,0,0,4.375-1.029,8.719,8.719,0,0,0,3.14-2.883l6.692,4.993a13.939,13.939,0,0,1-5.868,4.787,18.158,18.158,0,0,1-7.31,1.545,22.458,22.458,0,0,1-7.876-1.339,18.017,18.017,0,0,1-6.229-3.835,17.388,17.388,0,0,1-4.092-6.048,22.152,22.152,0,0,1,0-15.854,17.4,17.4,0,0,1,4.092-6.049,18.041,18.041,0,0,1,6.229-3.834,22.458,22.458,0,0,1,7.876-1.339,19.315,19.315,0,0,1,3.217.284,17.343,17.343,0,0,1,3.294.9,14.711,14.711,0,0,1,3.114,1.647,12.452,12.452,0,0,1,2.677,2.523Z" transform="translate(-201.821 -42.991)"/>
    <path class="cls-2" d="M469.013,495.689a20.579,20.579,0,0,1,1.467-7.927,17.4,17.4,0,0,1,4.092-6.049,18.041,18.041,0,0,1,6.229-3.834,23.839,23.839,0,0,1,15.752,0,18.037,18.037,0,0,1,6.228,3.834,17.39,17.39,0,0,1,4.093,6.049,22.152,22.152,0,0,1,0,15.854,17.378,17.378,0,0,1-4.093,6.048,18.013,18.013,0,0,1-6.228,3.835,23.839,23.839,0,0,1-15.752,0,18.017,18.017,0,0,1-6.229-3.835,17.388,17.388,0,0,1-4.092-6.048A20.576,20.576,0,0,1,469.013,495.689Zm8.339,0a13.35,13.35,0,0,0,.8,4.71,10.773,10.773,0,0,0,2.291,3.707,10.449,10.449,0,0,0,3.578,2.445,12.847,12.847,0,0,0,9.317,0,10.457,10.457,0,0,0,3.578-2.445A10.813,10.813,0,0,0,499.2,500.4a14.229,14.229,0,0,0,0-9.394,10.768,10.768,0,0,0-2.291-3.732,10.469,10.469,0,0,0-3.578-2.445,12.835,12.835,0,0,0-9.317,0,10.461,10.461,0,0,0-3.578,2.445A10.729,10.729,0,0,0,478.15,491,13.422,13.422,0,0,0,477.352,495.689Z" transform="translate(-201.821 -42.991)"/>
  </g>
  <g>
    <path class="cls-2" d="M370.562,243.648a35.078,35.078,0,0,1,2.495-13.5,29.67,29.67,0,0,1,6.971-10.3,30.686,30.686,0,0,1,10.607-6.526,40.559,40.559,0,0,1,26.822,0,30.729,30.729,0,0,1,10.607,6.526,29.66,29.66,0,0,1,6.967,10.3,37.693,37.693,0,0,1,0,26.995,29.618,29.618,0,0,1-6.967,10.3,30.739,30.739,0,0,1-10.607,6.531,40.635,40.635,0,0,1-26.822,0,30.7,30.7,0,0,1-10.607-6.531,29.628,29.628,0,0,1-6.971-10.3A35.078,35.078,0,0,1,370.562,243.648Zm14.2,0a22.784,22.784,0,0,0,1.359,8.021,18.4,18.4,0,0,0,3.9,6.312,17.78,17.78,0,0,0,6.09,4.163,21.852,21.852,0,0,0,15.865,0,17.842,17.842,0,0,0,6.094-4.163,18.321,18.321,0,0,0,3.9-6.312,24.22,24.22,0,0,0,0-16,18.245,18.245,0,0,0-3.9-6.353,17.79,17.79,0,0,0-6.094-4.167,21.852,21.852,0,0,0-15.865,0,17.729,17.729,0,0,0-6.09,4.167,18.323,18.323,0,0,0-3.9,6.353A22.891,22.891,0,0,0,384.759,243.648Z" transform="translate(-201.821 -42.991)"/>
    <path class="cls-2" d="M385.274,441.354l4.921-72.647s73.4-12.82,76.966-94.5c0,0,3.926-87.279-88.352-71.122,0,0,74.811-63.354,135.357,32.882C514.166,235.972,591.692,387.869,385.274,441.354Z" transform="translate(-201.821 -42.991)"/>
    <path class="cls-2" d="M399.69,42.991l2.777,72.761s-71.631,20.5-66.559,102.094c0,0,5.311,87.206,95.368,61.4,0,0-67.7,70.9-138.072-18.407C293.2,260.835,200.074,117.973,399.69,42.991Z" transform="translate(-201.821 -42.991)"/>
    <path class="cls-1" d="M602.181,248l-72.811-.629s-17.125-72.512-98.869-71.261c0,0-87.359,1.227-65.789,92.392,0,0-67.655-70.945,24.844-137.06C389.557,131.439,536.618,45.092,602.181,248Z" transform="translate(-201.821 -42.991)"/>
    <path class="cls-1" d="M201.821,239.3l72.807,1.006s16.749,72.6,98.5,71.772c0,0,87.364-.774,66.266-92.051,0,0,67.287,71.294-25.553,136.93C413.839,356.953,266.333,442.537,201.821,239.3Z" transform="translate(-201.821 -42.991)"/>
  </g>
</svg>
